<?xml version="1.0" standalone="no"?>
<!DOCTYPE svg PUBLIC "-//W3C//DTD SVG 20010904//EN"
 "http://www.w3.org/TR/2001/REC-SVG-20010904/DTD/svg10.dtd">
<svg version="1.0" xmlns="http://www.w3.org/2000/svg"
 width="512.000000pt" height="512.000000pt" viewBox="0 0 512.000000 512.000000"
 preserveAspectRatio="xMidYMid meet">
<metadata>
Created by potrace 1.16, written by Peter Selinger 2001-2019
</metadata>
<g transform="translate(0.000000,512.000000) scale(0.100000,-0.100000)"
fill="#000000" stroke="none">
<path d="M2520 4013 c-111 -18 -196 -39 -258 -65 -40 -17 -71 -32 -69 -34 2
-2 62 7 133 20 390 74 674 26 1006 -171 88 -52 287 -153 301 -153 23 0 -1 36
-51 78 -184 153 -437 275 -655 317 -73 14 -339 19 -407 8z"/>
<path d="M1769 3854 c-146 -102 -248 -190 -337 -294 -165 -191 -293 -450 -223
-450 15 0 33 25 71 98 76 144 170 271 311 417 70 71 136 148 147 171 15 29 42
56 91 89 64 44 78 55 68 55 -2 0 -59 -39 -128 -86z"/>
<path d="M2598 3823 c34 -2 88 -2 120 0 31 2 3 3 -63 3 -66 0 -92 -1 -57 -3z"/>
<path d="M2781 3816 c2 -2 33 -6 69 -9 41 -3 54 -2 35 3 -31 8 -112 13 -104 6z"/>
<path d="M2995 3775 c157 -46 261 -95 370 -174 39 -28 84 -60 100 -72 17 -12
13 -6 -10 15 -55 49 -157 117 -233 155 -71 36 -259 101 -288 100 -11 0 17 -11
61 -24z"/>
<path d="M1878 3704 c-225 -151 -409 -373 -505 -611 -63 -157 -85 -268 -90
-463 -4 -153 -2 -188 17 -280 27 -131 50 -200 106 -319 119 -253 327 -474 582
-617 34 -19 62 -31 62 -25 0 6 -31 28 -70 51 -280 164 -497 422 -604 720 -97
270 -101 586 -10 860 83 248 260 485 489 653 127 93 131 96 125 96 -3 0 -49
-29 -102 -65z"/>
<path d="M2415 3739 c-161 -21 -315 -74 -315 -109 0 -31 15 -32 102 -2 142 49
147 45 22 -17 -204 -99 -330 -196 -459 -350 -32 -39 -62 -68 -67 -65 -29 18
13 121 97 240 49 69 54 84 27 84 -32 0 -189 -205 -252 -327 -62 -123 -111
-303 -81 -303 4 0 2 -33 -5 -72 -27 -154 -14 -338 36 -488 21 -66 109 -250
134 -283 9 -11 29 -20 48 -20 29 -2 33 1 36 25 2 15 -12 56 -34 100 -51 100
-70 160 -104 322 -34 158 -37 219 -15 335 31 163 122 331 259 477 214 230 457
336 771 337 161 0 248 -15 381 -65 204 -77 388 -220 531 -413 12 -17 23 -25
23 -19 0 20 -97 148 -173 229 -43 45 -71 82 -64 84 6 2 20 10 29 18 15 14 22
11 62 -22 96 -79 205 -219 278 -360 26 -49 47 -85 48 -80 0 23 -100 206 -151
275 -151 204 -331 334 -572 415 -179 60 -391 79 -592 54z"/>
<path d="M2465 3573 c-180 -25 -371 -130 -536 -293 -145 -144 -239 -309 -275
-482 -16 -76 -15 -173 1 -173 6 0 16 33 22 74 34 204 114 366 255 517 160 170
365 277 582 303 83 10 103 20 93 45 -6 16 -65 20 -142 9z"/>
<path d="M2890 3487 c186 -68 331 -172 473 -337 26 -30 47 -50 47 -45 0 15
-98 125 -168 189 -113 102 -278 195 -377 211 -32 5 -27 2 25 -18z"/>
<path d="M3537 3503 c-16 -15 -5 -41 39 -93 100 -120 167 -237 219 -380 52
-144 66 -231 72 -438 5 -178 7 -194 26 -207 17 -12 19 -21 13 -69 -3 -30 -20
-94 -37 -143 -104 -297 -281 -538 -534 -728 -138 -104 -388 -206 -589 -240
-115 -19 -340 -20 -443 0 -85 16 -228 61 -282 89 -18 10 -35 16 -37 13 -7 -6
122 -62 199 -86 251 -77 545 -72 802 14 413 138 747 478 899 913 56 162 69
237 69 417 1 248 -34 408 -133 611 -90 185 -245 365 -283 327z"/>
<path d="M3692 3445 c163 -212 273 -466 314 -725 l13 -85 -5 88 c-8 139 -73
346 -157 497 -44 80 -150 231 -183 260 -18 16 -12 4 18 -35z"/>
<path d="M2480 3393 c-97 -16 -157 -55 -145 -92 8 -25 25 -26 102 -6 121 32
302 9 416 -52 28 -16 78 -54 112 -86 l60 -58 -106 55 c-131 69 -231 96 -353
96 -118 -1 -161 -11 -276 -67 -80 -40 -109 -61 -185 -137 -141 -142 -199 -273
-199 -451 -1 -115 13 -181 59 -280 102 -221 333 -389 526 -384 l44 1 -50 8
c-222 33 -401 171 -501 387 -89 189 -83 401 14 553 67 105 216 224 350 281 66
28 92 33 178 37 108 4 166 -4 258 -39 74 -27 222 -126 271 -180 71 -79 135
-259 135 -381 0 -129 -48 -270 -128 -378 -54 -73 -125 -131 -227 -187 -81 -45
-97 -65 -73 -89 16 -16 20 -16 62 0 56 21 155 85 224 143 163 139 253 352 239
568 -21 314 -178 562 -432 681 -111 51 -267 75 -375 57z"/>
<path d="M2020 3178 c-55 -55 -131 -158 -117 -158 2 0 17 19 32 43 16 23 55
70 88 105 73 75 71 83 -3 10z"/>
<path d="M2475 3079 c-27 -5 -60 -9 -73 -9 -28 0 -88 -30 -165 -82 -108 -73
-160 -140 -198 -250 -18 -54 -21 -80 -17 -175 l4 -113 -18 28 c-11 15 -24 38
-30 52 -6 15 -12 20 -15 13 -9 -24 29 -114 77 -187 100 -149 222 -232 356
-242 l69 -5 -61 24 c-160 62 -258 162 -303 311 -37 119 -23 285 29 348 19 23
19 23 3 -31 -22 -76 -14 -226 16 -304 49 -125 164 -236 298 -287 170 -65 397
9 467 152 55 113 78 259 56 356 -22 96 -91 196 -161 236 -26 15 -20 7 23 -33
162 -148 179 -395 38 -553 -80 -91 -219 -146 -332 -133 -132 16 -259 111 -321
243 -30 63 -32 74 -32 178 0 107 1 112 38 187 66 134 171 215 309 239 97 17
212 -11 306 -72 17 -12 32 -18 32 -12 0 15 -100 80 -156 101 -61 24 -171 33
-239 20z"/>
<path d="M4055 3053 c39 -102 59 -267 59 -483 0 -154 -4 -202 -22 -283 -98
-443 -340 -795 -722 -1052 -100 -67 -276 -154 -377 -186 -70 -22 -94 -42 -74
-62 20 -20 222 39 346 100 366 183 687 547 823 933 57 163 77 285 76 480 0
142 -5 195 -23 279 -23 109 -78 291 -88 291 -3 0 -2 -8 2 -17z"/>
<path d="M1229 3023 l-34 -38 38 34 c34 33 42 41 34 41 -2 0 -19 -17 -38 -37z"/>
<path d="M1061 3013 c-37 -94 -61 -360 -51 -568 5 -98 5 -97 12 70 7 176 25
304 58 437 24 91 24 88 6 88 -7 0 -19 -12 -25 -27z"/>
<path d="M3731 2975 c1 -19 18 -51 18 -35 0 8 -4 22 -9 30 -5 8 -9 11 -9 5z"/>
<path d="M3527 2963 c-3 -5 6 -53 20 -108 22 -85 26 -123 26 -255 0 -137 -3
-166 -25 -250 -19 -68 -24 -99 -17 -113 44 -81 119 153 119 368 0 103 -21 239
-48 312 -14 39 -23 49 -44 51 -14 2 -28 -1 -31 -5z"/>
<path d="M2538 2953 c18 -2 45 -2 60 0 15 2 0 4 -33 4 -33 0 -45 -2 -27 -4z"/>
<path d="M2915 2950 c-4 -6 14 -43 40 -82 82 -130 110 -272 81 -416 -38 -188
-121 -295 -308 -398 -80 -45 -38 -34 67 16 201 97 301 243 312 455 8 149 -30
281 -113 389 -33 44 -65 58 -79 36z"/>
<path d="M2478 2943 c7 -3 16 -2 19 1 4 3 -2 6 -13 5 -11 0 -14 -3 -6 -6z"/>
<path d="M2638 2943 c7 -3 16 -2 19 1 4 3 -2 6 -13 5 -11 0 -14 -3 -6 -6z"/>
<path d="M3306 2855 c36 -125 49 -256 35 -356 -41 -296 -233 -545 -499 -648
-104 -40 -182 -52 -315 -51 -62 1 -119 1 -128 1 -23 -1 -32 -30 -17 -49 11
-13 8 -14 -27 -8 -54 10 -150 44 -206 72 -68 34 -199 136 -258 200 -28 30 -51
52 -51 47 0 -23 149 -168 223 -217 155 -102 262 -131 458 -123 245 9 370 66
568 260 184 181 257 333 268 557 6 129 -7 233 -38 295 -10 22 -17 31 -13 20z"/>
<path d="M3771 2844 c0 -11 3 -14 6 -6 3 7 2 16 -1 19 -3 4 -6 -2 -5 -13z"/>
<path d="M1453 2790 c0 -25 2 -35 4 -22 2 12 2 32 0 45 -2 12 -4 2 -4 -23z"/>
<path d="M3641 2814 c0 -11 3 -14 6 -6 3 7 2 16 -1 19 -3 4 -6 -2 -5 -13z"/>
<path d="M3782 2800 c0 -14 2 -19 5 -12 2 6 2 18 0 25 -3 6 -5 1 -5 -13z"/>
<path d="M3652 2770 c0 -14 2 -19 5 -12 2 6 2 18 0 25 -3 6 -5 1 -5 -13z"/>
<path d="M2452 2759 c-92 -46 -123 -169 -65 -253 36 -52 83 -76 148 -76 132 1
211 125 156 246 -42 91 -149 129 -239 83z m134 -68 c44 -27 60 -77 40 -124
-15 -37 -59 -67 -96 -67 -68 0 -121 72 -99 137 12 38 59 73 99 73 14 0 39 -9
56 -19z"/>
<path d="M2831 2728 c31 -60 37 -160 14 -233 -32 -99 -125 -183 -228 -205
l-42 -9 47 3 c160 12 278 182 246 356 -9 50 -42 130 -53 130 -3 0 4 -19 16
-42z"/>
<path d="M3792 2745 c0 -16 2 -22 5 -12 2 9 2 23 0 30 -3 6 -5 -1 -5 -18z"/>
<path d="M1793 2705 c0 -22 2 -30 4 -17 2 12 2 30 0 40 -3 9 -5 -1 -4 -23z"/>
<path d="M3663 2705 c0 -22 2 -30 4 -17 2 12 2 30 0 40 -3 9 -5 -1 -4 -23z"/>
<path d="M1444 2620 c0 -58 1 -81 3 -52 2 28 2 76 0 105 -2 28 -3 5 -3 -53z"/>
<path d="M3802 2580 c-2 -136 -18 -258 -47 -358 -9 -30 -14 -56 -12 -59 7 -6
45 142 57 222 6 39 9 129 8 200 l-4 130 -2 -135z"/>
<path d="M3302 2670 c0 -14 2 -19 5 -12 2 6 2 18 0 25 -3 6 -5 1 -5 -13z"/>
<path d="M3673 2585 c0 -33 2 -45 4 -27 2 18 2 45 0 60 -2 15 -4 0 -4 -33z"/>
<path d="M1792 2540 c0 -19 2 -27 5 -17 2 9 2 25 0 35 -3 9 -5 1 -5 -18z"/>
<path d="M1452 2480 c0 -19 2 -27 5 -17 2 9 2 25 0 35 -3 9 -5 1 -5 -18z"/>
<path d="M3663 2475 c0 -22 2 -30 4 -17 2 12 2 30 0 40 -3 9 -5 -1 -4 -23z"/>
<path d="M1801 2464 c0 -11 3 -14 6 -6 3 7 2 16 -1 19 -3 4 -6 -2 -5 -13z"/>
<path d="M1462 2425 c0 -21 25 -107 27 -90 0 6 -6 33 -13 60 -8 28 -14 41 -14
30z"/>
<path d="M3652 2410 c0 -14 2 -19 5 -12 2 6 2 18 0 25 -3 6 -5 1 -5 -13z"/>
<path d="M1054 2305 c5 -139 25 -241 68 -363 179 -507 674 -935 1178 -1017
120 -19 315 -19 414 0 134 25 125 34 -34 35 -159 0 -266 14 -412 54 -242 66
-458 181 -642 341 -297 260 -526 654 -552 952 -12 131 -25 130 -20 -2z"/>
<path d="M3641 2364 c0 -11 3 -14 6 -6 3 7 2 16 -1 19 -3 4 -6 -2 -5 -13z"/>
<path d="M3621 2294 c0 -11 3 -14 6 -6 3 7 2 16 -1 19 -3 4 -6 -2 -5 -13z"/>
<path d="M1023 2265 c0 -22 2 -30 4 -17 2 12 2 30 0 40 -3 9 -5 -1 -4 -23z"/>
<path d="M1510 2255 c0 -5 5 -17 10 -25 5 -8 10 -10 10 -5 0 6 -5 17 -10 25
-5 8 -10 11 -10 5z"/>
<path d="M3379 2158 c-123 -257 -358 -453 -624 -519 -124 -31 -315 -31 -430
-2 -158 41 -282 103 -420 207 -93 71 -110 79 -124 62 -9 -10 6 -29 67 -88 201
-192 433 -291 682 -291 193 0 326 41 495 154 155 103 246 203 317 344 28 56
80 196 75 201 -2 2 -19 -29 -38 -68z"/>
<path d="M3678 2133 c-9 -10 -25 -40 -37 -68 -54 -124 -212 -327 -349 -448
-237 -210 -482 -307 -778 -307 -74 0 -105 -4 -113 -14 -14 -17 -5 -44 17 -50
83 -24 278 -13 426 25 105 26 277 110 391 191 136 96 296 260 391 403 96 144
143 247 124 270 -17 20 -53 19 -72 -2z"/>
<path d="M1226 2117 c3 -10 9 -15 12 -12 3 3 0 11 -7 18 -10 9 -11 8 -5 -6z"/>
<path d="M1535 2080 c9 -16 18 -30 21 -30 2 0 -2 14 -11 30 -9 17 -18 30 -21
30 -2 0 2 -13 11 -30z"/>
<path d="M1300 1971 c11 -22 24 -42 29 -46 6 -3 -2 15 -15 40 -31 55 -42 60
-14 6z"/>
<path d="M1650 1915 c130 -161 261 -275 404 -351 160 -85 286 -117 466 -117
247 0 457 71 650 219 57 44 210 194 198 194 -4 0 -45 -34 -90 -76 -158 -144
-319 -235 -502 -282 -89 -23 -120 -26 -256 -26 -125 1 -170 5 -232 22 -216 59
-353 145 -558 351 -128 130 -137 137 -80 66z"/>
<path d="M1530 1676 c0 -2 8 -10 18 -17 15 -13 16 -12 3 4 -13 16 -21 21 -21
13z"/>
<path d="M1645 1550 c44 -44 82 -80 85 -80 2 0 -31 36 -75 80 -44 44 -82 80
-85 80 -2 0 31 -36 75 -80z"/>
</g>
</svg>